<svg xmlns="http://www.w3.org/2000/svg" width="500" height="118.3" viewBox="0 0 500 118.3"><path d="M492.58,466a13.2,13.2,0,0,1,1-5.22,13.36,13.36,0,0,1,3-4.41,12.39,12.39,0,0,1,4.22-3,12.67,12.67,0,0,1,5.11-1.08,9.67,9.67,0,0,1,7.07,2.63,9.51,9.51,0,0,1,2,3.25,9.36,9.36,0,0,1,.58,3.78,13.17,13.17,0,0,1-1,5.33,13.6,13.6,0,0,1-3,4.51,13.43,13.43,0,0,1-9.76,4,8.86,8.86,0,0,1-6.69-2.72,10,10,0,0,1-2.58-7Z" transform="translate(-250 -440.85)"/><path d="M250,519.79a120.91,120.91,0,0,1,3.65-29.33,93.24,93.24,0,0,1,9.67-25.09,36.27,36.27,0,0,1,13.5-13.13,37.69,37.69,0,0,1,18.69-4.75q16.71,0,25.16,10t8.45,29.8a121.79,121.79,0,0,1-2.9,26.51,95.18,95.18,0,0,1-8,22.93,40.26,40.26,0,0,1-14.49,16.63,38.48,38.48,0,0,1-20.93,5.68q-16,0-24.34-10.09T250,519.79Zm34.77,18.34a12.89,12.89,0,0,0,8.94-3.42A26.16,26.16,0,0,0,300,524.12a129.22,129.22,0,0,0,5.09-20,116.45,116.45,0,0,0,2-19.63A19,19,0,0,0,304,472.54a11.14,11.14,0,0,0-9.35-4,13.18,13.18,0,0,0-9.22,3.58,24.58,24.58,0,0,0-6.31,10.59A123.39,123.39,0,0,0,274,503a116.65,116.65,0,0,0-2,19.37,18.3,18.3,0,0,0,3.25,11.73,11.54,11.54,0,0,0,9.53,4Z" transform="translate(-250 -440.85)"/><path d="M339.66,484.6h19.71l-7.25,45.7v.62a33.47,33.47,0,0,0-.54,4.47,6.21,6.21,0,0,0,.31,2.42,6.5,6.5,0,0,0,1.23,2.11,6,6,0,0,0,4.47,1.57q6.26,0,8.41-13.91v-.24l6.77-42.72h19.91l-8.23,49.91q-2,12.76-8.85,18.66t-19.63,6q-11.87,0-18-5.2c-4.11-3.48-6.17-8.69-6.17-15.46a68.35,68.35,0,0,1,.54-7.29c.34-3.14,1-7.61,1.88-13.5Z" transform="translate(-250 -440.85)"/><path d="M395.58,557.72l8.86-56.05h-7.35l2.76-17.07h7.35l3.41-21.54H430.5l-3.39,21.54H436l-2.77,17.07h-8.89l-8.94,56.05Z" transform="translate(-250 -440.85)"/><path d="M440.31,557.72l8.95-56.05h-8.49l2.77-17.07H452l2.48-15.28a11.22,11.22,0,0,1,.24-1.63q2-13.72,6.53-19.09a20,20,0,0,1,7.21-5.76,20.49,20.49,0,0,1,9.08-2,25.83,25.83,0,0,1,11.21,2.33L485.62,463a22.83,22.83,0,0,0-2.42-.55,11.29,11.29,0,0,0-2.17-.18,5.36,5.36,0,0,0-2.8.86,5.24,5.24,0,0,0-1.92,2.2,31.09,31.09,0,0,0-2.95,10.19l-1.38,9h10.29l-2.7,17.07H469.19l-8.71,56.05Z" transform="translate(-250 -440.85)"/><path d="M498.38,557.72H478.55l11.62-73.12H510.1Z" transform="translate(-250 -440.85)"/><path d="M514,557.72l8.85-56.05h-7.33l2.76-17.07h7.36L529,463.06h19.91l-3.38,21.54h8.87l-2.79,17.07h-8.85l-9,56.05Z" transform="translate(-250 -440.85)"/><path d="M558.06,557.72l8.87-56.05h-7.37l2.76-17.07h7.37l3.39-21.54H593l-3.4,21.54h8.89l-2.78,17.07h-8.88l-8.93,56.05Z" transform="translate(-250 -440.85)"/><path d="M638.24,513.61a6.17,6.17,0,0,1,.12-1.45,13.31,13.31,0,0,0,0-2.21,11.44,11.44,0,0,0-2.2-7.53,7.61,7.61,0,0,0-6.19-2.7,10,10,0,0,0-7.81,3.74,19.48,19.48,0,0,0-4.23,10.15Zm15.11,19.51a35.76,35.76,0,0,1-11.56,18.94,29.39,29.39,0,0,1-19.57,7q-12.53,0-19.13-7.63c-4.39-5.13-6.57-12.56-6.57-22.41q0-21.46,9.11-33.62a29.6,29.6,0,0,1,25.1-12.14q12,0,18.53,6.78t6.57,19.15c0,2.28-.12,4.77-.38,7.41s-.64,5.78-1.2,9.36H615.69c-.1.69-.18,1.39-.22,2s0,1.6,0,2.7a13,13,0,0,0,2.4,8.42,8,8,0,0,0,6.69,3,8.23,8.23,0,0,0,5.67-2.12,14.92,14.92,0,0,0,3.73-6.82Z" transform="translate(-250 -440.85)"/><path d="M656.54,557.72l11.62-73.12h19.09l-1.32,10.1a29.6,29.6,0,0,1,8.11-8.43,21,21,0,0,1,9.68-3.3l-2.91,20.45q-15.85.6-19.49,23.52c-.2,1.39-.38,2.53-.5,3.36l-4.29,27.42Z" transform="translate(-250 -440.85)"/><path d="M700.46,553.05l3.07-18.34a34.34,34.34,0,0,0,8.55,5.17,21.51,21.51,0,0,0,8.29,1.76,6,6,0,0,0,4.23-1.35,4.75,4.75,0,0,0,1.5-3.71q0-4.17-8-10.67a3.79,3.79,0,0,1-.4-.3,35.48,35.48,0,0,1-8.25-8.82,17.31,17.31,0,0,1-2.41-9.06,22.8,22.8,0,0,1,1.75-9.58,23.12,23.12,0,0,1,5.58-8,27.19,27.19,0,0,1,19.17-6.87,34.65,34.65,0,0,1,7.6.85,53.15,53.15,0,0,1,8.87,2.81l-2.8,18.61a37.48,37.48,0,0,0-7.44-3.37,19.68,19.68,0,0,0-6.23-1.1,9,9,0,0,0-5.2,1.35,4.13,4.13,0,0,0-2,3.56c0,1.81,2.45,4.49,7.29,8.13,1.21.89,2,1.61,2.71,2.1a29.25,29.25,0,0,1,8.21,8.63,19.25,19.25,0,0,1,2,9.25,23.92,23.92,0,0,1-7.17,18.09,26,26,0,0,1-18.83,6.89,35,35,0,0,1-10-1.49,49.43,49.43,0,0,1-10.06-4.53Z" transform="translate(-250 -440.85)"/></svg>